<?xml version="1.0" encoding="utf-8"?>
<!-- Generator: Adobe Illustrator 28.0.0, SVG Export Plug-In . SVG Version: 6.00 Build 0)  -->
<svg version="1.1" id="Layer_1" xmlns="http://www.w3.org/2000/svg" xmlns:xlink="http://www.w3.org/1999/xlink" x="0px" y="0px"
	 viewBox="0 0 100 100" style="enable-background:new 0 0 100 100;" xml:space="preserve">
<style type="text/css">
	.st0{fill:#6366F1;}
	.st1{fill:#FCFCFC;}
</style>
<path class="st0" d="M64.99,46.29c0.7,2.94,1.51,5.9,2.17,8.84v0.01c-0.01,0.03-0.03,0.06-0.07,0.06
	c-3.81-0.01-7.93-0.02-12.35-0.02c-0.07,0-0.12-0.03-0.17-0.1c-0.03-0.04-0.04-0.1-0.03-0.15c0.11-0.46,0.24-1.01,0.38-1.65
	c1.05-4.78,2.11-9.49,3.18-14.15c0.3-1.32,0.81-2.38,2.33-2.51c1.56-0.14,2.36,0.9,2.71,2.26C63.78,41.33,64.39,43.8,64.99,46.29z"
	/>
<path class="st0" d="M50,0C22.39,0,0,22.39,0,50s22.39,50,50,50s50-22.39,50-50S77.61,0,50,0z M20.98,25.06l10.87-0.02
	c0.05,0,0.09,0.04,0.09,0.09l0.02,9.74c0,0.05-0.04,0.09-0.09,0.09L21,34.98c-0.05,0-0.09-0.04-0.09-0.09l-0.02-9.74
	C20.9,25.1,20.94,25.06,20.98,25.06z M31.94,74.64c0,0.03-0.03,0.06-0.06,0.06l-10.95-0.02c-0.03,0-0.06-0.03-0.06-0.06l0.05-29.54
	c0-0.04,0.03-0.06,0.06-0.06l10.95,0.02c0.03,0,0.06,0.03,0.06,0.06L31.94,74.64z M72.03,74.66c-0.02,0-0.04,0-0.05-0.01
	c-0.04-0.01-0.06-0.04-0.07-0.08l-2.21-8.55c-0.02-0.11-0.1-0.17-0.21-0.17l-17.26-0.02c-0.05,0-0.09,0.03-0.1,0.08l-1.95,8.56
	c-0.03,0.12-0.1,0.18-0.22,0.18l-11.73,0.01c-0.07,0-0.1-0.03-0.09-0.1c0.64-3.44,1.32-6.88,2.03-10.32
	c1.76-8.47,3.4-16.53,4.92-24.18c0-0.01,0.14-0.86,0.42-2.54c0.28-1.64,0.77-3.21,1.47-4.7c0.51-1.08,1.25-2.13,2.21-3.16
	c3.22-3.43,7.19-5.07,11.91-4.93c2.54,0.08,5.02,0.86,7.22,2.19c2.81,1.7,4.88,4.15,6.22,7.35c0.36,0.87,0.69,2.02,1.01,3.45
	c0.49,2.23,0.96,4.38,1.43,6.45c0.31,1.37,0.68,2.74,0.98,4.11c1.6,7.27,3.3,14.5,5.11,21.69c0.39,1.56,0.78,3.13,1.16,4.7
	L72.03,74.66z"/>
<path class="st1" d="M71.98,74.67c0.01,0.01,0.03,0.01,0.04,0.01c1.12,0,2.24,0,3.38-0.01H71.98z"/>
</svg>
