<?xml version="1.0" encoding="utf-8"?>
<!-- Generator: Adobe Illustrator 28.0.0, SVG Export Plug-In . SVG Version: 6.00 Build 0)  -->
<svg version="1.1" id="Layer_1" xmlns="http://www.w3.org/2000/svg" xmlns:xlink="http://www.w3.org/1999/xlink" x="0px" y="0px"
	 viewBox="0 0 100 100" style="enable-background:new 0 0 100 100;" xml:space="preserve">
<style type="text/css">
	.st0{fill:url(#SVGID_1_);}
	.st1{fill:url(#SVGID_00000157305233816812466940000015889539653922751650_);}
	.st2{fill:#FCFCFC;}
</style>
<linearGradient id="SVGID_1_" gradientUnits="userSpaceOnUse" x1="54.3714" y1="47.1112" x2="67.1565" y2="59.8963" gradientTransform="matrix(1 0 0 -1 0 102)">
	<stop  offset="0" style="stop-color:#818CF8"/>
	<stop  offset="1" style="stop-color:#A21CAF"/>
</linearGradient>
<path class="st0" d="M65,46.3c0.7,2.9,1.5,5.9,2.2,8.8l0,0c0,0,0,0.1-0.1,0.1c-3.8,0-7.9,0-12.4,0c-0.1,0-0.1,0-0.2-0.1
	c0,0,0-0.1,0-0.2c0.1-0.5,0.2-1,0.4-1.6c1-4.8,2.1-9.5,3.2-14.2c0.3-1.3,0.8-2.4,2.3-2.5c1.6-0.1,2.4,0.9,2.7,2.3
	C63.8,41.3,64.4,43.8,65,46.3z"/>
<linearGradient id="SVGID_00000160153796865024443030000000872272234624065689_" gradientUnits="userSpaceOnUse" x1="14.65" y1="16.65" x2="85.35" y2="87.35" gradientTransform="matrix(1 0 0 -1 0 102)">
	<stop  offset="0" style="stop-color:#818CF8"/>
	<stop  offset="1" style="stop-color:#A21CAF"/>
</linearGradient>
<path style="fill:url(#SVGID_00000160153796865024443030000000872272234624065689_);" d="M50,0C22.4,0,0,22.4,0,50s22.4,50,50,50
	s50-22.4,50-50S77.6,0,50,0z M21,25.1h10.9c0.1,0,0.1,0,0.1,0.1v9.7c0,0,0,0.1-0.1,0.1H21c0,0-0.1,0-0.1-0.1L21,25.1
	C20.9,25.1,20.9,25.1,21,25.1z M31.9,74.6C31.9,74.7,31.9,74.7,31.9,74.6h-11c0,0-0.1,0-0.1-0.1V45c0,0,0-0.1,0.1-0.1h11
	c0,0,0.1,0,0.1,0.1L31.9,74.6z M72,74.7L72,74.7C71.9,74.7,71.9,74.7,72,74.7L69.7,66c0-0.1-0.1-0.2-0.2-0.2H52.2c0,0-0.1,0-0.1,0.1
	l-2,8.6c0,0.1-0.1,0.2-0.2,0.2H38.2c-0.1,0-0.1,0-0.1-0.1c0.6-3.4,1.3-6.9,2-10.3c1.8-8.5,3.4-16.5,4.9-24.2c0,0,0.1-0.9,0.4-2.5
	c0.3-1.6,0.8-3.2,1.5-4.7c0.5-1.1,1.2-2.1,2.2-3.2c3.2-3.4,7.2-5.1,11.9-4.9c2.5,0.1,5,0.9,7.2,2.2c2.8,1.7,4.9,4.2,6.2,7.4
	c0.4,0.9,0.7,2,1,3.4c0.5,2.2,1,4.4,1.4,6.5c0.3,1.4,0.7,2.7,1,4.1c1.6,7.3,3.3,14.5,5.1,21.7c0.4,1.6,0.8,3.1,1.2,4.7L72,74.7z"/>
<path class="st2" d="M72,74.7L72,74.7c1.2,0,2.3,0,3.4,0H72z"/>
</svg>
