<svg xmlns="http://www.w3.org/2000/svg" viewBox="0 0 58 50" style="enable-background:new 0 0 58 50" xml:space="preserve"><path d="M27.05 0c-.4 0-.79.13-1.11.34-.32.22-.58.53-.72.91 0 0-6.54 16.3-7.64 19.4-3.17 8.85-4.17 14.56-4.17 18.35V2.63c0-.65-.12-1.25-.34-1.74l-.01-.01A2.77 2.77 0 0 0 12.5 0H0c.22.23.42.53.57.88l.01.01c.21.49.34 1.09.34 1.74V48a2 2 0 0 0 2 2h15.17c.82 0 1.56-.51 1.86-1.27L31.93 18.3l11.99 30.43c.3.76 1.04 1.27 1.86 1.27h12.07L38.66 1.25C38.36.5 37.63 0 36.82 0h-9.77z" style="fill:#10b981"/></svg>